<!DOCTYPE svg PUBLIC "-//W3C//DTD SVG 1.1//EN" "http://www.w3.org/Graphics/SVG/1.1/DTD/svg11.dtd">
<!-- Uploaded to: SVG Repo, www.svgrepo.com, Transformed by: SVG Repo Mixer Tools -->
<svg version="1.1" id="Layer_1" xmlns="http://www.w3.org/2000/svg" xmlns:xlink="http://www.w3.org/1999/xlink" viewBox="0 0 512.003 512.003" xml:space="preserve" width="800px" height="800px" fill="#000000">
<g id="SVGRepo_bgCarrier" stroke-width="0"/>
<g id="SVGRepo_tracerCarrier" stroke-linecap="round" stroke-linejoin="round"/>
<g id="SVGRepo_iconCarrier"> <path style="fill:#BCE8F7;" d="M437.441,31.157l30.654,114.403c31.592-8.465,50.34-40.937,41.875-72.528 S469.034,22.693,437.441,31.157z"/> <rect x="6.571" y="174.205" transform="matrix(-0.9659 0.2588 -0.2588 -0.9659 106.2311 390.6867)" style="fill:#444242;" width="41.657" height="56.263"/> <path style="fill:#8EC1D6;" d="M468.095,145.56c31.592-8.465,50.34-40.937,41.875-72.528l-57.202,15.327L468.095,145.56z"/> <rect x="10.217" y="201.86" transform="matrix(0.9659 -0.2588 0.2588 0.9659 -54.8247 15.3916)" style="fill:#3A3839;" width="41.657" height="28.126"/> <rect x="36.944" y="126.19" transform="matrix(-0.9659 0.2588 -0.2588 -0.9659 306.8237 307.6063)" style="fill:#e13d3d;" width="192.439" height="95.619"/> <rect x="115.439" y="100.873" transform="matrix(0.2588 0.9659 -0.9659 0.2588 293.6576 11.4883)" style="fill:#aec2ea;" width="47.807" height="192.439"/> <rect x="201.099" y="104.581" transform="matrix(0.9659 -0.2588 0.2588 0.9659 -32.1546 60.5317)" style="fill:#B7B9C0;" width="25.451" height="95.619"/> <rect x="196.097" y="162.756" transform="matrix(0.2588 0.9659 -0.9659 0.2588 332.5648 -82.4394)" style="fill:#9B9DA6;" width="47.807" height="25.451"/> <rect x="211.619" y="55.309" transform="matrix(-0.9659 0.2588 -0.2588 -0.9659 712.1798 139.7046)" style="fill:#e13d3d;" width="270.551" height="122.843"/> <g> <rect x="415.209" y="34.957" transform="matrix(0.9659 -0.2588 0.2588 0.9659 -10.537 112.7158)" style="fill:#444242;" width="15.245" height="122.843"/> <rect x="451.846" y="23.67" transform="matrix(0.9659 -0.2588 0.2588 0.9659 -6.1811 123.23)" style="fill:#444242;" width="26.195" height="122.843"/> </g> <rect x="324.148" y="11.125" transform="matrix(0.2588 0.9659 -0.9659 0.2588 404.4282 -234.2551)" style="fill:#aec2ea;" width="61.416" height="270.551"/> <g> <rect x="423.153" y="95.339" transform="matrix(0.9659 -0.2588 0.2588 0.9659 -17.9449 115.7825)" style="fill:#3A3839;" width="15.245" height="61.416"/> <rect x="442.175" y="101.689" transform="matrix(0.2588 0.9659 -0.9659 0.2588 461.3728 -371.6918)" style="fill:#3A3839;" width="61.416" height="26.195"/> </g> <path style="fill:#444242;" d="M210.991,179.328L79.847,481.54l18.643,8.09l45.969-105.931h57.212v101.887h9.322h9.322V383.699 h57.212l45.969,105.931l18.643-8.09L210.991,179.328z M201.67,363.378h-48.393l48.393-111.52V363.378z M220.314,363.378V251.858 l48.393,111.52h-48.393V363.378z"/> <path style="fill:#3A3839;" d="M210.991,179.327v306.258h9.322V383.699h57.212l45.968,105.931l18.642-8.09L210.991,179.327z M220.314,363.378V251.858l48.393,111.519H220.314z"/> <circle style="fill:#F9D026;" cx="211.826" cy="202.915" r="28.227"/> <circle style="fill:#E7C224;" cx="211.826" cy="202.915" r="15.9"/> </g>
</svg>